# Blender v3.0.0 OBJ File: 'LowPolyCars.blend'
# www.blender.org
mtllib wheel-2.mtl
o whell.002_car2.020
v -0.259161 0.293453 0.614469
v -0.420479 0.152727 0.723085
v -0.420479 0.111162 0.514121
v -0.420479 0.194293 0.714817
v -0.420479 0.075924 0.537666
v -0.420479 0.229531 0.691272
v -0.420479 0.052379 0.572904
v -0.420479 0.253076 0.656035
v -0.420479 0.261343 0.614469
v -0.420479 0.044111 0.614469
v -0.420479 0.253076 0.572904
v -0.420479 0.052379 0.656035
v -0.420479 0.229531 0.537666
v -0.420479 0.075924 0.691272
v -0.420479 0.111162 0.714817
v -0.420479 0.194293 0.514121
v -0.420479 0.152727 0.505853
v -0.421367 0.293829 0.556023
v -0.432071 0.283746 0.560200
v -0.421367 0.260722 0.506475
v -0.432071 0.253004 0.514192
v -0.421367 0.211174 0.473367
v -0.432071 0.206997 0.483451
v -0.421367 0.152727 0.461742
v -0.432071 0.152727 0.472656
v -0.421367 0.094281 0.473367
v -0.432071 0.098458 0.483451
v -0.421367 0.044733 0.506475
v -0.432071 0.052450 0.514192
v -0.421367 0.011626 0.556023
v -0.432071 0.021709 0.560200
v -0.421367 0.000000 0.614469
v -0.432071 0.010914 0.614469
v -0.421367 0.011626 0.672915
v -0.432071 0.021709 0.668739
v -0.421367 0.044733 0.722464
v -0.432071 0.052450 0.714746
v -0.421367 0.094281 0.755571
v -0.432071 0.098458 0.745487
v -0.421367 0.152727 0.767196
v -0.432071 0.152727 0.756282
v -0.421367 0.211174 0.755571
v -0.432071 0.206997 0.745487
v -0.421367 0.260722 0.722464
v -0.432071 0.253004 0.714746
v -0.432071 0.294540 0.614469
v -0.421367 0.305455 0.614469
v -0.421367 0.293829 0.672915
v -0.432071 0.283746 0.668739
v -0.416784 0.169158 0.607663
v -0.416784 0.165303 0.601893
v -0.416784 0.159533 0.598038
v -0.416784 0.152727 0.596684
v -0.416784 0.145921 0.598038
v -0.416784 0.140152 0.601893
v -0.416784 0.136296 0.607663
v -0.416784 0.134943 0.614469
v -0.416784 0.136296 0.621275
v -0.416784 0.140152 0.627045
v -0.416784 0.145921 0.630900
v -0.416784 0.152727 0.632254
v -0.416784 0.159533 0.630900
v -0.416784 0.165303 0.627045
v -0.416784 0.169158 0.621275
v -0.416784 0.170512 0.614469
v -0.410119 0.182462 0.602153
v -0.410119 0.175485 0.591712
v -0.410119 0.165044 0.584735
v -0.410119 0.152727 0.582285
v -0.410119 0.140411 0.584735
v -0.410119 0.129970 0.591712
v -0.410119 0.122993 0.602153
v -0.410119 0.120543 0.614469
v -0.410119 0.122993 0.626785
v -0.410119 0.129970 0.637227
v -0.410119 0.140411 0.644203
v -0.410119 0.152727 0.646653
v -0.410119 0.165044 0.644203
v -0.410119 0.175485 0.637227
v -0.410119 0.182462 0.626785
v -0.410119 0.184911 0.614469
v -0.413050 0.198332 0.595579
v -0.413050 0.187632 0.579565
v -0.413050 0.171618 0.568864
v -0.413050 0.152727 0.565107
v -0.413050 0.133837 0.568864
v -0.413050 0.117823 0.579565
v -0.413050 0.107122 0.595579
v -0.413050 0.103365 0.614469
v -0.413050 0.107122 0.633359
v -0.413050 0.117823 0.649374
v -0.413050 0.133837 0.660074
v -0.413050 0.152727 0.663832
v -0.413050 0.171618 0.660074
v -0.413050 0.187632 0.649374
v -0.413050 0.198332 0.633359
v -0.413050 0.202090 0.614469
v -0.392633 0.224480 0.584748
v -0.392633 0.207644 0.559552
v -0.392633 0.182448 0.542717
v -0.392633 0.152727 0.536805
v -0.392633 0.123007 0.542717
v -0.392633 0.097811 0.559552
v -0.392633 0.080975 0.584748
v -0.392633 0.075063 0.614469
v -0.392633 0.080975 0.644190
v -0.392633 0.097811 0.669386
v -0.392633 0.123007 0.686221
v -0.392633 0.152727 0.692133
v -0.392633 0.182448 0.686221
v -0.392633 0.207644 0.669386
v -0.392633 0.224480 0.644190
v -0.392633 0.230392 0.614469
v -0.432071 0.256321 0.571559
v -0.279329 0.293829 0.556023
v -0.432071 0.232014 0.535182
v -0.279329 0.260722 0.506475
v -0.432071 0.195637 0.510876
v -0.279329 0.211174 0.473367
v -0.432071 0.152727 0.502341
v -0.279329 0.152727 0.461742
v -0.432071 0.109818 0.510876
v -0.279329 0.094281 0.473367
v -0.432071 0.073441 0.535182
v -0.279329 0.044733 0.506475
v -0.432071 0.049134 0.571559
v -0.279329 0.011626 0.556023
v -0.432071 0.040599 0.614469
v -0.279329 0.000000 0.614469
v -0.432071 0.049134 0.657379
v -0.279329 0.011626 0.672915
v -0.432071 0.073441 0.693756
v -0.279329 0.044733 0.722464
v -0.432071 0.109818 0.718062
v -0.279329 0.094281 0.755571
v -0.432071 0.152727 0.726597
v -0.279329 0.152727 0.767196
v -0.432071 0.195637 0.718062
v -0.279329 0.211174 0.755571
v -0.432071 0.232014 0.693756
v -0.279329 0.260722 0.722464
v -0.432071 0.256321 0.657379
v -0.279329 0.293829 0.672915
v -0.432071 0.264856 0.614469
v -0.259161 0.282740 0.668322
v -0.279329 0.305455 0.614469
v -0.259161 0.252235 0.713977
v -0.259161 0.206581 0.744482
v -0.259161 0.152727 0.755194
v -0.259161 0.098874 0.744482
v -0.259161 0.053220 0.713977
v -0.259161 0.022714 0.668322
v -0.259161 0.012002 0.614469
v -0.259161 0.022714 0.560616
v -0.259161 0.053220 0.514961
v -0.259161 0.098874 0.484456
v -0.259161 0.152727 0.473744
v -0.259161 0.206581 0.484456
v -0.259161 0.252235 0.514961
v -0.259161 0.282741 0.560616
v -0.259161 0.152727 0.614469
vt 0.080191 0.149199
vt 0.080758 0.150898
vt 0.080203 0.150888
vt 0.051801 0.152601
vt 0.051202 0.151420
vt 0.051774 0.151171
vt 0.051810 0.154297
vt 0.051227 0.155870
vt 0.051235 0.154301
vt 0.936748 0.323397
vt 0.936439 0.322188
vt 0.936759 0.322149
vt 0.937057 0.301625
vt 0.937348 0.302712
vt 0.937019 0.302672
vt 0.886254 0.323929
vt 0.885938 0.322716
vt 0.886261 0.322678
vt 0.936792 0.325702
vt 0.936439 0.324606
vt 0.936759 0.324645
vt 0.065894 0.141179
vt 0.067111 0.140083
vt 0.067101 0.140946
vt 0.076220 0.150888
vt 0.075900 0.149328
vt 0.076208 0.149199
vt 0.039167 0.150789
vt 0.038834 0.149202
vt 0.039150 0.149084
vt 0.062778 0.144144
vt 0.063369 0.145737
vt 0.063084 0.145847
vt 0.065471 0.140075
vt 0.065584 0.140378
vt 0.033477 0.149630
vt 0.033583 0.150117
vt 0.033403 0.150040
vt 0.034052 0.150028
vt 0.033795 0.150446
vt 0.033721 0.150260
vt 0.032416 0.150366
vt 0.032891 0.150260
vt 0.032817 0.150446
vt 0.033714 0.152766
vt 0.034073 0.151741
vt 0.034499 0.152428
vt 0.033721 0.150835
vt 0.033029 0.150977
vt 0.080162 0.147785
vt 0.080748 0.149341
vt 0.080167 0.154064
vt 0.080750 0.152472
vt 0.080725 0.153824
vt 0.062178 0.157413
vt 0.062713 0.155839
vt 0.062754 0.157166
vt 0.080194 0.152597
vt 0.936471 0.321163
vt 0.936792 0.321091
vt 0.937005 0.303916
vt 0.937348 0.305130
vt 0.937019 0.305168
vt 0.885957 0.321685
vt 0.886280 0.321613
vt 0.936428 0.323397
vt 0.068750 0.140117
vt 0.069910 0.141326
vt 0.068629 0.140416
vt 0.070056 0.147375
vt 0.070720 0.145829
vt 0.071001 0.145946
vt 0.063996 0.147299
vt 0.065496 0.147995
vt 0.065375 0.148279
vt 0.064070 0.141020
vt 0.063405 0.142582
vt 0.063124 0.142449
vt 0.033125 0.149630
vt 0.033209 0.150040
vt 0.033803 0.149770
vt 0.032551 0.151068
vt 0.032817 0.150648
vt 0.032891 0.150835
vt 0.032800 0.149770
vt 0.032551 0.150028
vt 0.043146 0.150789
vt 0.043676 0.149213
vt 0.043691 0.150784
vt 0.033033 0.151956
vt 0.033478 0.151466
vt 0.033574 0.151956
vt 0.031945 0.150268
vt 0.032416 0.150731
vt 0.031945 0.150828
vt 0.033029 0.150117
vt 0.034661 0.150828
vt 0.034187 0.150366
vt 0.034661 0.150268
vt 0.031478 0.151805
vt 0.032534 0.151741
vt 0.032079 0.152428
vt 0.034052 0.151068
vt 0.034187 0.150731
vt 0.034455 0.151345
vt 0.033803 0.151326
vt 0.031153 0.150110
vt 0.031153 0.150991
vt 0.035426 0.150991
vt 0.035425 0.150110
vt 0.033573 0.149140
vt 0.033033 0.149140
vt 0.035100 0.151805
vt 0.033125 0.151466
vt 0.032152 0.151345
vt 0.032800 0.151326
vt 0.936571 0.287882
vt 0.937402 0.286829
vt 0.937402 0.287710
vt 0.032152 0.149750
vt 0.034072 0.149354
vt 0.032079 0.148673
vt 0.031478 0.149296
vt 0.032534 0.149354
vt 0.034454 0.149750
vt 0.032864 0.148336
vt 0.033714 0.148336
vt 0.035100 0.149296
vt 0.034499 0.148673
vt 0.055784 0.152601
vt 0.940153 0.290363
vt 0.940749 0.289147
vt 0.941251 0.289892
vt 0.940152 0.284168
vt 0.939114 0.285054
vt 0.938964 0.284168
vt 0.937026 0.289020
vt 0.937728 0.288524
vt 0.938964 0.290363
vt 0.939964 0.289484
vt 0.942546 0.287882
vt 0.941675 0.286829
vt 0.942546 0.286649
vt 0.941251 0.284639
vt 0.939964 0.285054
vt 0.936570 0.286649
vt 0.937728 0.286015
vt 0.937866 0.289892
vt 0.939114 0.289484
vt 0.942092 0.289020
vt 0.941675 0.287710
vt 0.942091 0.285511
vt 0.940749 0.285391
vt 0.937025 0.285511
vt 0.938329 0.285391
vt 0.938329 0.289147
vt 0.941350 0.288524
vt 0.941350 0.286015
vt 0.032864 0.152766
vt 0.068301 0.141209
vt 0.043129 0.149084
vt 0.039098 0.147630
vt 0.043077 0.147630
vt 0.055785 0.156000
vt 0.051802 0.156000
vt 0.043628 0.147873
vt 0.039147 0.152483
vt 0.043126 0.152483
vt 0.058197 0.157413
vt 0.062133 0.155973
vt 0.055757 0.151171
vt 0.043072 0.153910
vt 0.058152 0.152573
vt 0.062177 0.151132
vt 0.062133 0.152573
vt 0.058137 0.154273
vt 0.062117 0.154273
vt 0.076211 0.152597
vt 0.058152 0.155973
vt 0.076184 0.154064
vt 0.937866 0.284639
vt 0.069314 0.141929
vt 0.069983 0.142995
vt 0.071041 0.144255
vt 0.070208 0.144245
vt 0.069954 0.145489
vt 0.069260 0.146538
vt 0.069842 0.147156
vt 0.068231 0.147232
vt 0.068541 0.148033
vt 0.067025 0.147465
vt 0.067014 0.148328
vt 0.065824 0.147202
vt 0.064811 0.146482
vt 0.064215 0.147085
vt 0.064142 0.145416
vt 0.063084 0.144156
vt 0.063917 0.144166
vt 0.064171 0.142922
vt 0.064865 0.141873
vt 0.064283 0.141255
vt 0.051776 0.157451
vt 0.070757 0.142674
vt 0.937335 0.303917
vt 0.033209 0.151054
vt 0.033403 0.151054
vt 0.886261 0.325174
vt 0.885957 0.326151
vt 0.885938 0.325134
vt 0.051203 0.157207
vt 0.043673 0.152345
vt 0.068655 0.148320
vt 0.062713 0.152707
vt 0.062698 0.154273
vt 0.070129 0.141096
vt 0.033583 0.150977
vt 0.937864 0.323137
vt 0.938185 0.321894
vt 0.938192 0.323096
vt 0.937885 0.319565
vt 0.938192 0.320679
vt 0.937864 0.320642
vt 0.937857 0.321897
vt 0.937386 0.306164
vt 0.937057 0.306236
vt 0.885932 0.323928
vt 0.937885 0.324175
vt 0.938212 0.324101
vt 0.051226 0.152738
vt 0.038850 0.150784
vt 0.043624 0.153659
vt 0.075902 0.152484
vt 0.075910 0.150897
vt 0.033795 0.150648
vt 0.067114 0.139758
vt 0.068805 0.110336
vt 0.069394 0.108860
vt 0.072674 0.111134
vt 0.075954 0.113407
vt 0.074866 0.114536
vt 0.070483 0.107731
vt 0.073444 0.115147
vt 0.071905 0.107120
vt 0.071905 0.115148
vt 0.073444 0.107120
vt 0.074866 0.107731
vt 0.070483 0.114537
vt 0.075954 0.108860
vt 0.069394 0.113408
vt 0.076543 0.110335
vt 0.068805 0.111932
vt 0.076543 0.111932
vt 0.937386 0.301698
vt 0.936471 0.325630
vt 0.080721 0.148039
vt 0.055794 0.154297
vt 0.039093 0.153910
vt 0.076179 0.147785
vt 0.058197 0.151132
vt 0.055759 0.157451
vt 0.886280 0.326224
vt 0.062754 0.151378
vt 0.071041 0.142548
vt 0.938212 0.319636
vt 0.038831 0.152358
vn 0.5114 0.3289 -0.7939
vn 0.5114 -0.0000 -0.8593
vn 0.5114 0.7939 -0.3289
vn 0.5114 0.6076 -0.6076
vn 0.5114 0.8593 0.0000
vn 0.5114 0.7939 0.3289
vn -0.2900 0.0000 0.9570
vn -0.2900 -0.3662 0.8842
vn -0.2900 -0.6767 0.6767
vn -0.2900 -0.8842 0.3662
vn -0.2900 0.9570 0.0000
vn -0.2900 0.8842 0.3662
vn -0.2900 0.6767 0.6767
vn -0.2900 0.3662 0.8842
vn -1.0000 -0.0000 0.0000
vn -0.7139 0.0000 -0.7002
vn -0.7139 0.2680 -0.6469
vn -0.7139 -0.7002 0.0000
vn -0.7139 -0.6469 -0.2680
vn -0.7139 0.0000 0.7002
vn -0.7139 -0.2680 0.6469
vn -0.7139 0.6469 0.2680
vn -0.7139 0.7002 0.0000
vn -0.9075 -0.1607 -0.3881
vn -0.9707 -0.1700 -0.1700
vn -0.9707 -0.0920 -0.2221
vn -0.9075 -0.3881 -0.1607
vn -0.9707 -0.2404 0.0000
vn -0.9707 -0.2221 -0.0920
vn -0.9075 0.3881 -0.1607
vn -0.9707 0.1700 -0.1700
vn -0.9707 0.2221 -0.0920
vn -0.8110 0.0000 0.5851
vn -0.8110 -0.2239 0.5405
vn -0.9707 -0.1700 0.1700
vn -0.9707 0.1700 0.1700
vn 0.5114 -0.6076 -0.6076
vn 0.5114 -0.3289 -0.7939
vn 0.5114 0.6076 0.6076
vn 0.5114 0.3289 0.7939
vn -0.2900 -0.9570 0.0000
vn -0.2900 -0.8842 -0.3662
vn -0.7139 0.6469 -0.2680
vn -0.7139 0.4951 -0.4951
vn -0.7139 -0.4951 -0.4951
vn -0.7139 -0.2680 -0.6469
vn -0.7139 -0.4951 0.4951
vn -0.7139 -0.6469 0.2680
vn -0.7139 0.4951 0.4951
vn -0.7139 0.2680 0.6469
vn -0.9075 -0.0000 -0.4201
vn -0.9707 0.0000 -0.2404
vn -0.9075 -0.2970 -0.2970
vn -0.9075 0.3881 0.1607
vn -0.9707 0.2404 -0.0000
vn -0.9707 0.2221 0.0920
vn -0.9075 0.1607 -0.3881
vn -0.9075 0.2970 -0.2970
vn 0.5114 -0.8593 -0.0000
vn 0.5114 -0.7939 -0.3289
vn -0.9858 -0.0644 -0.1554
vn -0.9858 -0.0000 -0.1682
vn -0.9858 -0.1554 0.0644
vn -0.9858 -0.1682 -0.0000
vn -0.8110 0.2239 0.5405
vn -0.9707 0.0920 -0.2221
vn -0.9858 0.1554 -0.0644
vn -0.9858 0.1682 -0.0000
vn -0.8110 0.5405 0.2239
vn -0.8110 0.4137 0.4137
vn -0.9858 0.1189 -0.1189
vn -0.9858 0.0644 -0.1554
vn -0.8110 0.5405 -0.2239
vn -0.8110 0.5851 -0.0000
vn -0.8110 -0.5405 0.2239
vn -0.8110 -0.5851 0.0000
vn -0.9858 0.0644 0.1554
vn -0.9858 0.0000 0.1682
vn -0.8110 -0.4137 0.4137
vn -0.9858 -0.1189 -0.1189
vn -0.9858 -0.1554 -0.0644
vn -0.7434 -0.6688 0.0000
vn -0.7434 -0.6179 0.2559
vn -0.8110 0.4137 -0.4137
vn -0.9858 0.1189 0.1189
vn -0.8110 0.2239 -0.5405
vn -0.9858 0.1554 0.0644
vn -0.8110 0.0000 -0.5851
vn -0.8110 -0.2239 -0.5405
vn -0.8110 -0.4137 -0.4137
vn -0.8110 -0.5405 -0.2239
vn -0.9858 -0.1189 0.1189
vn -0.9858 -0.0644 0.1554
vn -0.0000 0.9239 -0.3827
vn -0.0000 1.0000 -0.0000
vn -0.7434 0.0000 -0.6688
vn -0.7434 0.2559 -0.6179
vn -0.7434 0.2559 0.6179
vn -0.7434 -0.0000 0.6688
vn -0.7434 -0.6179 -0.2559
vn -0.7434 -0.2559 -0.6179
vn -0.7434 0.6179 -0.2559
vn -0.7434 0.6688 -0.0000
vn -0.7434 0.4729 0.4729
vn -0.7434 -0.4729 0.4729
vn -0.7434 -0.4729 -0.4729
vn -0.7434 0.4729 -0.4729
vn -0.7434 0.6179 0.2559
vn -0.7434 -0.2559 0.6179
vn -0.0000 -0.9239 -0.3827
vn -0.0000 -0.7071 -0.7071
vn -0.0000 0.9239 0.3827
vn -0.0000 -1.0000 -0.0000
vn -0.0000 -0.9239 0.3827
vn -0.0000 0.7071 0.7071
vn -0.0000 0.3827 0.9239
vn -0.0000 0.7071 -0.7071
vn -0.0000 -0.7071 0.7071
vn -0.0000 0.3827 -0.9239
vn 0.0000 -0.3827 0.9239
vn -0.0000 0.0000 -1.0000
vn 0.0000 0.0000 1.0000
vn -0.0000 -0.3827 -0.9239
vn -0.9075 0.0000 0.4201
vn -0.9707 0.0920 0.2221
vn -0.9707 0.0000 0.2404
vn -0.2900 0.8842 -0.3662
vn -0.2900 0.6767 -0.6767
vn 0.5114 -0.7939 0.3289
vn 0.5114 -0.6076 0.6076
vn 0.5114 -0.3289 0.7939
vn 0.5114 -0.0000 0.8593
vn -0.9075 -0.2970 0.2970
vn -0.9707 -0.0920 0.2221
vn -0.2900 0.3662 -0.8842
vn -0.2900 0.0000 -0.9570
vn -0.9075 -0.3881 0.1607
vn -0.9075 -0.4201 0.0000
vn -0.2900 -0.6767 -0.6767
vn -0.2900 -0.3662 -0.8842
vn -0.9075 0.2970 0.2970
vn -0.9075 0.4201 0.0000
vn -0.9075 0.1607 0.3881
vn -0.9075 -0.1607 0.3881
vn -0.9707 -0.2221 0.0920
vn 1.0000 -0.0000 -0.0000
usemtl Material.car2
s 1
f 119/1/1 157/2/2 121/3/2
f 115/4/3 159/5/4 117/6/4
f 146/7/5 145/8/6 1/9/5
f 120/10/7 16/11/8 118/12/8
f 116/13/9 11/14/10 114/15/10
f 128/16/11 7/17/12 126/18/12
f 124/19/13 3/20/14 122/21/14
f 142/22/15 46/23/15 144/24/15
f 24/25/16 23/26/17 22/27/17
f 32/28/18 31/29/19 30/30/19
f 40/31/20 39/32/21 38/33/21
f 48/34/22 46/23/23 49/35/22
f 70/36/24 55/37/25 54/38/26
f 72/39/27 57/40/28 56/41/29
f 66/42/30 51/43/31 50/44/32
f 109/45/33 92/46/34 108/47/34
f 57/40/28 59/48/35 63/49/36
f 117/50/4 158/51/1 119/1/1
f 125/52/37 156/53/38 155/54/37
f 141/55/39 148/56/40 147/57/39
f 121/3/2 156/53/38 123/58/38
f 118/12/8 13/59/9 116/60/9
f 144/61/41 8/62/42 142/63/42
f 126/18/12 5/64/13 124/65/13
f 122/21/14 17/66/7 120/10/7
f 18/67/43 21/68/44 19/69/43
f 28/70/45 27/71/46 26/72/46
f 36/73/47 35/74/48 34/75/48
f 44/76/49 43/77/50 42/78/50
f 69/79/51 54/38/26 53/80/52
f 72/39/27 55/37/25 71/81/53
f 80/82/54 65/83/55 64/84/56
f 68/85/57 51/43/31 67/86/58
f 129/87/59 154/88/60 153/89/59
f 94/90/61 77/91/62 93/92/62
f 82/93/63 81/94/64 97/95/64
f 109/45/33 94/90/65 93/92/33
f 68/85/57 53/80/52 52/96/66
f 90/97/67 73/98/68 89/99/68
f 112/100/69 95/101/70 111/102/70
f 90/97/67 75/103/71 74/104/67
f 91/105/71 76/106/72 75/103/71
f 98/107/73 97/95/74 113/108/74
f 92/46/72 77/91/62 76/106/72
f 106/109/75 89/99/76 105/110/76
f 86/111/77 69/79/78 85/112/78
f 107/113/79 90/97/75 106/109/75
f 95/101/80 78/114/61 94/90/61
f 107/113/79 92/46/34 91/105/79
f 96/115/81 79/116/80 95/101/80
f 9/117/82 98/118/83 113/119/82
f 98/107/73 83/120/84 82/93/73
f 87/121/85 70/36/77 86/111/77
f 100/122/86 83/120/84 99/123/84
f 87/121/85 72/39/87 71/81/85
f 100/122/86 85/112/88 84/124/86
f 89/99/68 72/39/87 88/125/87
f 101/126/88 86/111/89 85/112/88
f 97/95/64 80/82/81 96/115/81
f 102/127/89 87/121/90 86/111/89
f 104/128/91 87/121/90 103/129/90
f 83/120/92 66/42/63 82/93/63
f 84/124/93 67/86/92 83/120/92
f 104/128/91 89/99/76 88/125/91
f 84/124/93 69/79/78 68/85/93
f 113/108/74 96/115/69 112/100/69
f 18/130/94 146/7/95 115/4/94
f 2/131/96 108/132/97 15/133/97
f 3/134/98 101/135/99 17/136/99
f 8/137/100 113/119/82 112/138/100
f 4/139/101 109/140/96 2/131/96
f 12/141/102 105/142/103 10/143/103
f 5/144/104 102/145/98 3/134/98
f 11/146/83 99/147/105 98/118/83
f 6/148/106 110/149/101 4/139/101
f 14/150/107 106/151/102 12/141/102
f 7/152/108 103/153/104 5/144/104
f 13/154/105 100/155/109 99/147/105
f 8/137/100 111/156/106 6/148/106
f 15/133/97 107/157/107 14/150/107
f 10/143/103 104/158/108 7/152/108
f 111/102/70 94/90/65 110/159/65
f 144/24/15 19/69/15 114/160/15
f 127/161/110 28/162/111 125/163/111
f 146/7/95 48/164/112 143/165/112
f 32/28/113 127/161/110 129/87/113
f 127/161/60 155/166/37 154/88/60
f 34/167/114 129/87/113 131/168/114
f 44/169/115 139/170/116 141/55/115
f 20/171/117 115/4/94 117/6/117
f 133/172/118 34/167/114 131/168/114
f 22/27/119 117/50/117 119/1/119
f 38/173/120 133/174/118 135/175/120
f 24/25/121 119/1/119 121/3/121
f 40/176/122 135/175/120 137/177/122
f 26/178/123 121/3/121 123/58/123
f 42/179/116 137/177/122 139/170/116
f 28/180/111 123/58/123 125/52/111
f 16/181/109 101/135/99 100/155/109
f 114/160/15 21/68/15 116/182/15
f 118/183/15 25/184/15 120/185/15
f 122/186/15 25/184/15 27/71/15
f 124/187/15 27/71/15 29/188/15
f 126/189/15 29/188/15 31/190/15
f 128/191/15 31/190/15 33/192/15
f 130/193/15 33/192/15 35/74/15
f 132/194/15 35/74/15 37/195/15
f 132/194/15 39/32/15 134/196/15
f 134/196/15 41/197/15 136/198/15
f 138/199/15 41/197/15 43/77/15
f 140/200/15 43/77/15 45/201/15
f 140/200/15 49/35/15 142/22/15
f 48/164/112 141/202/115 143/165/112
f 116/182/15 23/203/15 118/183/15
f 114/15/10 9/204/41 144/61/41
f 77/91/124 62/205/125 61/206/126
f 130/207/127 14/208/128 12/209/127
f 44/76/49 49/35/22 45/201/49
f 143/165/6 147/210/39 145/8/6
f 36/73/47 39/32/21 37/195/47
f 131/168/129 153/89/59 152/211/129
f 30/212/19 29/188/45 28/70/45
f 133/174/130 150/213/131 135/175/131
f 135/175/131 149/214/132 137/177/132
f 20/215/44 23/203/17 21/68/44
f 75/103/133 60/216/134 59/48/35
f 134/217/135 2/218/136 15/219/135
f 74/104/137 57/40/28 73/98/138
f 140/220/139 4/221/140 138/222/140
f 79/116/141 64/84/56 63/49/36
f 138/222/140 2/218/136 136/223/136
f 66/42/30 65/83/55 81/94/142
f 142/63/42 6/224/139 140/225/139
f 78/114/143 63/49/36 62/205/125
f 128/16/11 12/209/127 10/226/11
f 76/106/144 61/206/126 60/216/134
f 132/227/128 15/219/135 14/228/128
f 42/78/50 41/197/20 40/31/20
f 146/7/5 160/229/3 115/4/3
f 34/167/48 33/230/18 32/28/18
f 131/168/129 151/231/130 133/172/130
f 24/25/16 27/232/46 25/233/16
f 137/177/132 148/56/40 139/170/40
f 75/103/133 58/234/145 74/104/137
f 47/235/23 19/69/43 46/23/23
f 157/236/146 158/237/146 161/238/146
f 150/239/146 151/240/146 161/238/146
f 158/237/146 159/241/146 161/238/146
f 151/240/146 152/242/146 161/238/146
f 159/241/146 160/243/146 161/238/146
f 152/242/146 153/244/146 161/238/146
f 1/245/146 145/246/146 161/238/146
f 160/243/146 1/245/146 161/238/146
f 153/244/146 154/247/146 161/238/146
f 145/246/146 147/248/146 161/238/146
f 154/247/146 155/249/146 161/238/146
f 147/248/146 148/250/146 161/238/146
f 155/249/146 156/251/146 161/238/146
f 148/250/146 149/252/146 161/238/146
f 156/251/146 157/236/146 161/238/146
f 149/252/146 150/239/146 161/238/146
f 119/1/1 158/51/1 157/2/2
f 115/4/3 160/229/3 159/5/4
f 146/7/5 143/165/6 145/8/6
f 120/10/7 17/66/7 16/11/8
f 116/13/9 13/253/9 11/14/10
f 128/16/11 10/226/11 7/17/12
f 124/19/13 5/254/13 3/20/14
f 142/22/15 49/35/15 46/23/15
f 24/25/16 25/233/16 23/26/17
f 32/28/18 33/230/18 31/29/19
f 40/31/20 41/197/20 39/32/21
f 48/34/22 47/235/23 46/23/23
f 70/36/24 71/81/53 55/37/25
f 72/39/27 73/98/138 57/40/28
f 66/42/30 67/86/58 51/43/31
f 109/45/33 93/92/33 92/46/34
f 63/49/36 64/84/56 65/83/55
f 65/83/55 50/44/32 63/49/36
f 50/44/32 51/43/31 63/49/36
f 51/43/31 52/96/66 53/80/52
f 53/80/52 54/38/26 55/37/25
f 55/37/25 56/41/29 57/40/28
f 57/40/28 58/234/145 59/48/35
f 59/48/35 60/216/134 61/206/126
f 61/206/126 62/205/125 59/48/35
f 62/205/125 63/49/36 59/48/35
f 51/43/31 53/80/52 63/49/36
f 53/80/52 55/37/25 63/49/36
f 55/37/25 57/40/28 63/49/36
f 117/50/4 159/255/4 158/51/1
f 125/52/37 123/58/38 156/53/38
f 141/55/39 139/170/40 148/56/40
f 121/3/2 157/2/2 156/53/38
f 118/12/8 16/11/8 13/59/9
f 144/61/41 9/204/41 8/62/42
f 126/18/12 7/17/12 5/64/13
f 122/21/14 3/20/14 17/66/7
f 18/67/43 20/215/44 21/68/44
f 28/70/45 29/188/45 27/71/46
f 36/73/47 37/195/47 35/74/48
f 44/76/49 45/201/49 43/77/50
f 69/79/51 70/36/24 54/38/26
f 72/39/27 56/41/29 55/37/25
f 80/82/54 81/94/142 65/83/55
f 68/85/57 52/96/66 51/43/31
f 129/87/59 127/161/60 154/88/60
f 94/90/61 78/114/61 77/91/62
f 82/93/63 66/42/63 81/94/64
f 109/45/33 110/159/65 94/90/65
f 68/85/57 69/79/51 53/80/52
f 90/97/67 74/104/67 73/98/68
f 112/100/69 96/115/69 95/101/70
f 90/97/67 91/105/71 75/103/71
f 91/105/71 92/46/72 76/106/72
f 98/107/73 82/93/73 97/95/74
f 92/46/72 93/92/62 77/91/62
f 106/109/75 90/97/75 89/99/76
f 86/111/77 70/36/77 69/79/78
f 107/113/79 91/105/79 90/97/75
f 95/101/80 79/116/80 78/114/61
f 107/113/79 108/47/34 92/46/34
f 96/115/81 80/82/81 79/116/80
f 9/117/82 11/146/83 98/118/83
f 98/107/73 99/123/84 83/120/84
f 87/121/85 71/81/85 70/36/77
f 100/122/86 84/124/86 83/120/84
f 87/121/85 88/125/87 72/39/87
f 100/122/86 101/126/88 85/112/88
f 89/99/68 73/98/68 72/39/87
f 101/126/88 102/127/89 86/111/89
f 97/95/64 81/94/64 80/82/81
f 102/127/89 103/129/90 87/121/90
f 104/128/91 88/125/91 87/121/90
f 83/120/92 67/86/92 66/42/63
f 84/124/93 68/85/93 67/86/92
f 104/128/91 105/110/76 89/99/76
f 84/124/93 85/112/78 69/79/78
f 113/108/74 97/95/74 96/115/69
f 18/130/94 47/256/95 146/7/95
f 2/131/96 109/140/96 108/132/97
f 3/134/98 102/145/98 101/135/99
f 8/137/100 9/117/82 113/119/82
f 4/139/101 110/149/101 109/140/96
f 12/141/102 106/151/102 105/142/103
f 5/144/104 103/153/104 102/145/98
f 11/146/83 13/154/105 99/147/105
f 6/148/106 111/156/106 110/149/101
f 14/150/107 107/157/107 106/151/102
f 7/152/108 104/158/108 103/153/104
f 13/154/105 16/181/109 100/155/109
f 8/137/100 112/138/100 111/156/106
f 15/133/97 108/132/97 107/157/107
f 10/143/103 105/142/103 104/158/108
f 111/102/70 95/101/70 94/90/65
f 144/24/15 46/23/15 19/69/15
f 127/161/110 30/30/110 28/162/111
f 146/7/95 47/256/95 48/164/112
f 32/28/113 30/30/110 127/161/110
f 127/161/60 125/163/37 155/166/37
f 34/167/114 32/28/113 129/87/113
f 44/169/115 42/179/116 139/170/116
f 20/171/117 18/130/94 115/4/94
f 133/172/118 36/257/118 34/167/114
f 22/27/119 20/258/117 117/50/117
f 38/173/120 36/259/118 133/174/118
f 24/25/121 22/27/119 119/1/119
f 40/176/122 38/173/120 135/175/120
f 26/178/123 24/25/121 121/3/121
f 42/179/116 40/176/122 137/177/122
f 28/180/111 26/178/123 123/58/123
f 16/181/109 17/136/99 101/135/99
f 114/160/15 19/69/15 21/68/15
f 118/183/15 23/203/15 25/184/15
f 122/186/15 120/185/15 25/184/15
f 124/187/15 122/186/15 27/71/15
f 126/189/15 124/187/15 29/188/15
f 128/191/15 126/189/15 31/190/15
f 130/193/15 128/191/15 33/192/15
f 132/194/15 130/193/15 35/74/15
f 132/194/15 37/195/15 39/32/15
f 134/196/15 39/32/15 41/197/15
f 138/199/15 136/198/15 41/197/15
f 140/200/15 138/199/15 43/77/15
f 140/200/15 45/201/15 49/35/15
f 48/164/112 44/260/115 141/202/115
f 116/182/15 21/68/15 23/203/15
f 114/15/10 11/14/10 9/204/41
f 77/91/124 78/114/143 62/205/125
f 130/207/127 132/261/128 14/208/128
f 44/76/49 48/34/22 49/35/22
f 143/165/6 141/202/39 147/210/39
f 36/73/47 38/33/21 39/32/21
f 131/168/129 129/87/59 153/89/59
f 30/212/19 31/190/19 29/188/45
f 133/174/130 151/262/130 150/213/131
f 135/175/131 150/213/131 149/214/132
f 20/215/44 22/263/17 23/203/17
f 75/103/133 76/106/144 60/216/134
f 134/217/135 136/223/136 2/218/136
f 74/104/137 58/234/145 57/40/28
f 140/220/139 6/264/139 4/221/140
f 79/116/141 80/82/54 64/84/56
f 138/222/140 4/221/140 2/218/136
f 66/42/30 50/44/32 65/83/55
f 142/63/42 8/62/42 6/224/139
f 78/114/143 79/116/141 63/49/36
f 128/16/11 130/207/127 12/209/127
f 76/106/144 77/91/124 61/206/126
f 132/227/128 134/217/135 15/219/135
f 42/78/50 43/77/50 41/197/20
f 146/7/5 1/9/5 160/229/3
f 34/167/48 35/265/48 33/230/18
f 131/168/129 152/211/129 151/231/130
f 24/25/16 26/178/46 27/232/46
f 137/177/132 149/214/132 148/56/40
f 75/103/133 59/48/35 58/234/145
f 47/235/23 18/67/43 19/69/43
