# Blender v3.0.0 OBJ File: 'LowPolyCars.blend'
# www.blender.org
mtllib wheel-0.mtl
o whell_car2.018
v 0.279329 0.305455 -0.614469
v 0.432071 0.264856 -0.614469
v 0.279329 0.293829 -0.556023
v 0.432071 0.256320 -0.571560
v 0.279329 0.260722 -0.506475
v 0.432071 0.232014 -0.535183
v 0.279329 0.211174 -0.473368
v 0.432071 0.195637 -0.510876
v 0.279329 0.152727 -0.461742
v 0.432071 0.152727 -0.502341
v 0.279329 0.094281 -0.473368
v 0.432071 0.109818 -0.510876
v 0.279329 0.044733 -0.506475
v 0.432071 0.073441 -0.535183
v 0.279329 0.011626 -0.556023
v 0.432071 0.049134 -0.571560
v 0.279329 -0.000000 -0.614469
v 0.432071 0.040599 -0.614469
v 0.279329 0.011626 -0.672916
v 0.432071 0.049134 -0.657379
v 0.279329 0.044733 -0.722464
v 0.432071 0.073441 -0.693756
v 0.279329 0.094281 -0.755571
v 0.432071 0.109818 -0.718062
v 0.279329 0.152727 -0.767197
v 0.432071 0.152727 -0.726598
v 0.279329 0.211174 -0.755571
v 0.432071 0.195637 -0.718062
v 0.279329 0.260722 -0.722464
v 0.432071 0.232014 -0.693756
v 0.279329 0.293829 -0.672916
v 0.432071 0.256320 -0.657379
v 0.392633 0.230391 -0.614469
v 0.392633 0.224480 -0.584749
v 0.392633 0.207644 -0.559553
v 0.392633 0.182448 -0.542717
v 0.392633 0.152727 -0.536805
v 0.392633 0.123007 -0.542717
v 0.392633 0.097810 -0.559553
v 0.392633 0.080975 -0.584749
v 0.392633 0.075063 -0.614469
v 0.392633 0.080975 -0.644190
v 0.392633 0.097810 -0.669386
v 0.392633 0.123007 -0.686222
v 0.392633 0.152727 -0.692133
v 0.392633 0.182448 -0.686222
v 0.392633 0.207644 -0.669386
v 0.392633 0.224480 -0.644190
v 0.413050 0.202090 -0.614469
v 0.413050 0.198332 -0.595579
v 0.413050 0.187632 -0.579565
v 0.413050 0.171618 -0.568864
v 0.413050 0.152727 -0.565107
v 0.413050 0.133837 -0.568864
v 0.413050 0.117823 -0.579565
v 0.413050 0.107122 -0.595579
v 0.413050 0.103365 -0.614469
v 0.413050 0.107122 -0.633359
v 0.413050 0.117823 -0.649374
v 0.413050 0.133837 -0.660074
v 0.413050 0.152727 -0.663832
v 0.413050 0.171618 -0.660074
v 0.413050 0.187632 -0.649374
v 0.413050 0.198332 -0.633359
v 0.410119 0.184911 -0.614469
v 0.410119 0.182461 -0.602153
v 0.410119 0.175485 -0.591712
v 0.410119 0.165044 -0.584735
v 0.410119 0.152727 -0.582285
v 0.410119 0.140411 -0.584735
v 0.410119 0.129970 -0.591712
v 0.410119 0.122993 -0.602153
v 0.410119 0.120543 -0.614469
v 0.410119 0.122993 -0.626786
v 0.410119 0.129970 -0.637227
v 0.410119 0.140411 -0.644203
v 0.410119 0.152727 -0.646653
v 0.410119 0.165044 -0.644203
v 0.410119 0.175485 -0.637227
v 0.410119 0.182461 -0.626786
v 0.416784 0.170512 -0.614469
v 0.416784 0.169158 -0.607663
v 0.416784 0.165303 -0.601894
v 0.416784 0.159533 -0.598038
v 0.416784 0.152727 -0.596684
v 0.416784 0.145921 -0.598038
v 0.416784 0.140152 -0.601894
v 0.416784 0.136296 -0.607663
v 0.416784 0.134942 -0.614469
v 0.416784 0.136296 -0.621275
v 0.416784 0.140152 -0.627045
v 0.416784 0.145921 -0.630900
v 0.416784 0.152727 -0.632254
v 0.416784 0.159533 -0.630900
v 0.416784 0.165303 -0.627045
v 0.416784 0.169158 -0.621275
v 0.432071 0.283746 -0.560200
v 0.421366 0.293829 -0.556023
v 0.421366 0.305455 -0.614469
v 0.432071 0.294540 -0.614469
v 0.432071 0.253004 -0.514192
v 0.421366 0.260722 -0.506475
v 0.432071 0.206997 -0.483451
v 0.421366 0.211174 -0.473368
v 0.432071 0.152727 -0.472656
v 0.421366 0.152727 -0.461742
v 0.432071 0.098458 -0.483451
v 0.421366 0.094281 -0.473368
v 0.432071 0.052450 -0.514192
v 0.421366 0.044733 -0.506475
v 0.432071 0.021709 -0.560200
v 0.421366 0.011626 -0.556023
v 0.432071 0.010914 -0.614469
v 0.421366 -0.000000 -0.614469
v 0.432071 0.021709 -0.668739
v 0.421366 0.011626 -0.672916
v 0.432071 0.052450 -0.714746
v 0.421366 0.044733 -0.722464
v 0.432071 0.098458 -0.745488
v 0.421366 0.094281 -0.755571
v 0.432071 0.152727 -0.756282
v 0.421366 0.152727 -0.767197
v 0.432071 0.206997 -0.745488
v 0.421366 0.211174 -0.755571
v 0.432071 0.253004 -0.714746
v 0.421366 0.260722 -0.722464
v 0.432071 0.283746 -0.668739
v 0.421366 0.293829 -0.672916
v 0.420479 0.152727 -0.723085
v 0.420479 0.194293 -0.714817
v 0.420479 0.111162 -0.514121
v 0.420479 0.075924 -0.537666
v 0.420479 0.229530 -0.691272
v 0.420479 0.052379 -0.572904
v 0.420479 0.253076 -0.656035
v 0.420479 0.044111 -0.614469
v 0.420479 0.261343 -0.614469
v 0.420479 0.253075 -0.572904
v 0.420479 0.052379 -0.656035
v 0.420479 0.229530 -0.537666
v 0.420479 0.075924 -0.691272
v 0.420479 0.194293 -0.514121
v 0.420479 0.111162 -0.714817
v 0.420479 0.152727 -0.505853
v 0.259161 0.293453 -0.614469
v 0.259161 0.282740 -0.560616
v 0.259161 0.252235 -0.514962
v 0.259161 0.206581 -0.484456
v 0.259161 0.152727 -0.473744
v 0.259161 0.098874 -0.484456
v 0.259161 0.053220 -0.514962
v 0.259160 0.022714 -0.560616
v 0.259160 0.012002 -0.614469
v 0.259161 0.022714 -0.668323
v 0.259161 0.053220 -0.713977
v 0.259160 0.098874 -0.744482
v 0.259160 0.152727 -0.755194
v 0.259161 0.206581 -0.744482
v 0.259161 0.252235 -0.713977
v 0.259161 0.282740 -0.668323
v 0.259161 0.152727 -0.614469
vt 0.081909 0.133656
vt 0.085919 0.132205
vt 0.081935 0.132205
vt 0.073623 0.115889
vt 0.072903 0.117384
vt 0.073932 0.116690
vt 0.072321 0.116766
vt 0.072209 0.118433
vt 0.071122 0.119666
vt 0.071955 0.119677
vt 0.072180 0.120927
vt 0.072253 0.122596
vt 0.072849 0.121993
vt 0.073862 0.122712
vt 0.073534 0.123506
vt 0.075063 0.122976
vt 0.076579 0.123544
vt 0.076269 0.122743
vt 0.077880 0.122666
vt 0.077298 0.122049
vt 0.078758 0.121340
vt 0.077992 0.121000
vt 0.079079 0.119766
vt 0.078246 0.119756
vt 0.078021 0.118505
vt 0.078795 0.118185
vt 0.077352 0.117439
vt 0.931890 0.284639
vt 0.933138 0.285054
vt 0.932988 0.284168
vt 0.077948 0.116837
vt 0.076340 0.116720
vt 0.076668 0.115927
vt 0.075139 0.116457
vt 0.048536 0.149213
vt 0.047937 0.147630
vt 0.047989 0.149084
vt 0.085927 0.130502
vt 0.081944 0.130502
vt 0.085918 0.128806
vt 0.081934 0.128806
vt 0.063415 0.151467
vt 0.067380 0.149768
vt 0.063399 0.149768
vt 0.063399 0.153167
vt 0.067395 0.151467
vt 0.063355 0.154609
vt 0.067380 0.153167
vt 0.047932 0.153910
vt 0.044007 0.152483
vt 0.043953 0.153910
vt 0.048006 0.150789
vt 0.047986 0.152483
vt 0.044027 0.150789
vt 0.044010 0.149084
vt 0.071632 0.147785
vt 0.075588 0.149253
vt 0.075615 0.147785
vt 0.071605 0.149253
vt 0.075580 0.150961
vt 0.071608 0.152650
vt 0.071596 0.150961
vt 0.071637 0.154064
vt 0.075591 0.152650
vt 0.081908 0.127375
vt 0.085891 0.127375
vt 0.067335 0.148328
vt 0.063355 0.148328
vt 0.027057 0.151956
vt 0.026103 0.152428
vt 0.026888 0.152766
vt 0.936116 0.289021
vt 0.934773 0.289147
vt 0.935275 0.289892
vt 0.931752 0.286014
vt 0.931050 0.285510
vt 0.935700 0.287710
vt 0.936570 0.287882
vt 0.931427 0.286828
vt 0.930595 0.286649
vt 0.935700 0.286829
vt 0.936570 0.286650
vt 0.931752 0.288524
vt 0.930595 0.287881
vt 0.931050 0.289020
vt 0.931427 0.287710
vt 0.936116 0.285511
vt 0.932353 0.289147
vt 0.931890 0.289892
vt 0.934773 0.285392
vt 0.935275 0.284639
vt 0.933138 0.289484
vt 0.932988 0.290363
vt 0.933988 0.285054
vt 0.934177 0.284168
vt 0.933988 0.289484
vt 0.934177 0.290363
vt 0.028685 0.150268
vt 0.028211 0.150731
vt 0.028685 0.150828
vt 0.027598 0.149140
vt 0.028523 0.148673
vt 0.027738 0.148336
vt 0.027598 0.151956
vt 0.027738 0.152766
vt 0.027057 0.149140
vt 0.026888 0.148336
vt 0.028523 0.152429
vt 0.026103 0.148673
vt 0.029124 0.151806
vt 0.028097 0.151741
vt 0.026176 0.149750
vt 0.025502 0.149296
vt 0.029450 0.150991
vt 0.025177 0.150110
vt 0.029450 0.150110
vt 0.025502 0.151805
vt 0.025970 0.150828
vt 0.025177 0.150991
vt 0.025970 0.150268
vt 0.029124 0.149296
vt 0.026176 0.151345
vt 0.028097 0.149354
vt 0.026824 0.149770
vt 0.027233 0.150040
vt 0.027149 0.149630
vt 0.026575 0.151068
vt 0.026440 0.150731
vt 0.028479 0.149750
vt 0.028211 0.150366
vt 0.026824 0.151326
vt 0.026558 0.151741
vt 0.028076 0.150028
vt 0.027149 0.151466
vt 0.027502 0.149630
vt 0.027502 0.151466
vt 0.026558 0.149354
vt 0.028479 0.151345
vt 0.027827 0.151326
vt 0.028076 0.151068
vt 0.026575 0.150028
vt 0.027607 0.150117
vt 0.026841 0.150648
vt 0.027745 0.150835
vt 0.026915 0.150260
vt 0.026841 0.150446
vt 0.026440 0.150365
vt 0.027819 0.150446
vt 0.027745 0.150260
vt 0.026915 0.150835
vt 0.027827 0.149770
vt 0.027233 0.151054
vt 0.027427 0.150040
vt 0.027427 0.151055
vt 0.075153 0.115269
vt 0.073509 0.115586
vt 0.072108 0.116531
vt 0.071443 0.118093
vt 0.071162 0.117960
vt 0.070816 0.119655
vt 0.071123 0.121358
vt 0.072035 0.122810
vt 0.071407 0.121248
vt 0.073413 0.123789
vt 0.043691 0.152358
vt 0.043694 0.149202
vt 0.076693 0.123831
vt 0.078094 0.122886
vt 0.079040 0.121457
vt 0.075897 0.149366
vt 0.075900 0.152521
vt 0.079079 0.118059
vt 0.078167 0.116607
vt 0.076788 0.115627
vt 0.075149 0.115594
vt 0.938020 0.294226
vt 0.937685 0.293027
vt 0.937692 0.294268
vt 0.937641 0.293002
vt 0.937332 0.294211
vt 0.937652 0.294250
vt 0.938013 0.293025
vt 0.937692 0.291773
vt 0.937685 0.295307
vt 0.938020 0.291810
vt 0.937713 0.290696
vt 0.885608 0.321685
vt 0.885912 0.322678
vt 0.885932 0.321613
vt 0.936992 0.295307
vt 0.937283 0.294201
vt 0.936953 0.294239
vt 0.885590 0.322716
vt 0.885906 0.323929
vt 0.936939 0.292987
vt 0.937283 0.291783
vt 0.936953 0.291743
vt 0.937270 0.292989
vt 0.885590 0.325134
vt 0.885912 0.325174
vt 0.937320 0.290769
vt 0.936992 0.290696
vt 0.885932 0.326224
vt 0.937685 0.290696
vt 0.937332 0.291793
vt 0.937652 0.291754
vt 0.938040 0.295231
vt 0.937713 0.295305
vt 0.081361 0.132075
vt 0.081369 0.130506
vt 0.048533 0.152345
vt 0.081360 0.128943
vt 0.048484 0.153659
vt 0.071078 0.153810
vt 0.062819 0.153034
vt 0.071041 0.150951
vt 0.062834 0.151468
vt 0.071049 0.149377
vt 0.071074 0.148025
vt 0.062778 0.148575
vt 0.071041 0.142973
vt 0.074910 0.143772
vt 0.071630 0.141498
vt 0.078190 0.146045
vt 0.077102 0.147174
vt 0.072719 0.140369
vt 0.075680 0.147785
vt 0.074141 0.139758
vt 0.074140 0.147785
vt 0.075680 0.139758
vt 0.077102 0.140369
vt 0.072718 0.147174
vt 0.078190 0.141498
vt 0.071630 0.146045
vt 0.078779 0.142973
vt 0.071041 0.144570
vt 0.078779 0.144570
vt 0.085893 0.133656
vt 0.075053 0.123839
vt 0.932353 0.285391
vt 0.048488 0.147873
vt 0.067335 0.154609
vt 0.043958 0.147630
vt 0.075620 0.154064
vt 0.935374 0.288524
vt 0.935374 0.286015
vt 0.027053 0.150117
vt 0.027053 0.150977
vt 0.027607 0.150977
vt 0.027819 0.150648
vt 0.043710 0.150784
vt 0.075889 0.150952
vt 0.937320 0.293002
vt 0.937363 0.295235
vt 0.938040 0.290766
vt 0.937320 0.295235
vt 0.885583 0.323928
vt 0.885608 0.326151
vt 0.937363 0.290768
vt 0.081337 0.133412
vt 0.048552 0.150784
vt 0.081335 0.127625
vt 0.071051 0.152508
vt 0.062778 0.154362
vt 0.062819 0.149902
vn 0.0000 0.7071 0.7071
vn 0.0000 0.9239 0.3827
vn 1.0000 0.0000 0.0000
vn 0.7434 -0.2559 0.6179
vn 0.7434 -0.0000 0.6688
vn -0.5114 -0.7939 -0.3289
vn -0.5114 -0.6076 -0.6076
vn 0.0000 1.0000 0.0000
vn 0.0000 0.9239 -0.3827
vn -0.0000 0.0000 1.0000
vn 0.0000 0.3827 0.9239
vn -0.0000 -0.3827 0.9239
vn -0.0000 -0.7071 0.7071
vn -0.0000 -0.9239 0.3827
vn -0.0000 -1.0000 0.0000
vn -0.0000 -0.9239 -0.3827
vn -0.0000 -0.7071 -0.7071
vn -0.0000 -0.3827 -0.9239
vn -0.0000 0.0000 -1.0000
vn -0.0000 0.3827 -0.9239
vn 0.0000 0.7071 -0.7071
vn 0.8110 0.2239 0.5405
vn 0.8110 0.4137 0.4137
vn 0.7434 0.4729 -0.4729
vn 0.7434 0.2559 -0.6179
vn 0.7434 -0.4729 0.4729
vn 0.7434 0.6179 -0.2559
vn 0.7434 -0.6179 0.2559
vn 0.7434 0.6688 -0.0000
vn 0.7434 -0.6179 -0.2559
vn 0.7434 -0.6688 -0.0000
vn 0.7434 0.6179 0.2559
vn 0.7434 -0.4729 -0.4729
vn 0.7434 0.4729 0.4729
vn 0.7434 -0.2559 -0.6179
vn 0.7434 0.2559 0.6179
vn 0.7434 -0.0000 -0.6688
vn 0.9858 0.1682 -0.0000
vn 0.9858 0.1554 -0.0644
vn 0.8110 -0.2239 -0.5405
vn 0.8110 -0.4137 -0.4137
vn 0.8110 0.0000 0.5851
vn 0.8110 0.0000 -0.5851
vn 0.8110 -0.2239 0.5405
vn 0.8110 0.2239 -0.5405
vn 0.8110 -0.4137 0.4137
vn 0.8110 0.4137 -0.4137
vn 0.8110 -0.5405 0.2239
vn 0.8110 0.5405 -0.2239
vn 0.8110 -0.5851 -0.0000
vn 0.8110 0.5405 0.2239
vn 0.8110 0.5851 -0.0000
vn 0.8110 -0.5405 -0.2239
vn 0.9075 0.1607 -0.3881
vn 0.9707 0.0000 -0.2404
vn 0.9075 0.0000 -0.4201
vn 0.9858 -0.1554 -0.0644
vn 0.9858 -0.1682 -0.0000
vn 0.9858 -0.1554 0.0644
vn 0.9858 0.1554 0.0644
vn 0.9858 -0.1189 -0.1189
vn 0.9858 0.1189 0.1189
vn 0.9858 -0.0644 -0.1554
vn 0.9858 0.0644 0.1554
vn 0.9858 0.0000 -0.1682
vn 0.9858 0.0000 0.1682
vn 0.9858 0.0644 -0.1554
vn 0.9858 -0.0644 0.1554
vn 0.9858 0.1189 -0.1189
vn 0.9858 -0.1189 0.1189
vn 0.9707 -0.1700 -0.1700
vn 0.9707 0.2404 -0.0000
vn 0.9707 -0.1700 0.1700
vn 0.9075 -0.1607 0.3881
vn 0.9075 -0.2970 0.2970
vn 0.9707 0.1700 -0.1700
vn 0.9075 0.2970 -0.2970
vn 0.9075 -0.3881 0.1607
vn 0.9707 0.2221 -0.0920
vn 0.9075 0.3881 -0.1608
vn 0.9707 -0.2404 0.0000
vn 0.9075 -0.4201 0.0000
vn 0.9075 0.3881 0.1607
vn 0.9075 0.4201 -0.0000
vn 0.9707 -0.2221 -0.0920
vn 0.9075 -0.3881 -0.1608
vn 0.9075 0.2970 0.2970
vn 0.9707 0.2221 0.0920
vn 0.9075 -0.2970 -0.2970
vn 0.9707 0.0920 0.2221
vn 0.9075 0.1607 0.3881
vn 0.9707 -0.0920 -0.2221
vn 0.9075 -0.1607 -0.3881
vn 0.9707 -0.0000 0.2404
vn 0.9075 0.0000 0.4201
vn 0.7139 0.6469 0.2680
vn 0.7139 0.7002 -0.0000
vn 0.7139 0.4951 0.4951
vn 0.7139 0.2680 0.6469
vn 0.7139 -0.0000 0.7002
vn 0.7139 -0.2680 0.6469
vn 0.7139 -0.4951 0.4951
vn 0.7139 -0.6469 0.2680
vn 0.7139 -0.7002 -0.0000
vn 0.7139 -0.6469 -0.2680
vn 0.7139 -0.4951 -0.4951
vn 0.7139 -0.2680 -0.6469
vn 0.7139 0.0000 -0.7002
vn 0.7139 0.2680 -0.6469
vn 0.7139 0.4951 -0.4951
vn 0.7139 0.6469 -0.2680
vn 0.2900 0.3662 -0.8842
vn 0.2900 -0.0000 -0.9570
vn 0.2900 -0.0000 0.9570
vn 0.2900 0.3662 0.8842
vn 0.2900 -0.3662 -0.8842
vn 0.2900 0.6767 0.6767
vn 0.2900 -0.6767 -0.6767
vn 0.2900 0.8842 0.3662
vn 0.2900 -0.8842 -0.3662
vn 0.2900 0.9570 0.0000
vn 0.2900 -0.9570 0.0000
vn 0.2900 -0.8842 0.3662
vn 0.2900 0.8842 -0.3662
vn 0.2900 -0.6767 0.6767
vn 0.2900 0.6767 -0.6767
vn 0.2900 -0.3662 0.8842
vn -0.5114 0.7939 0.3289
vn -0.5114 0.6076 0.6076
vn -0.5114 -0.8593 -0.0000
vn -0.5114 0.7939 -0.3289
vn -0.5114 0.8593 0.0000
vn -0.5114 -0.7939 0.3289
vn -0.5114 0.6076 -0.6076
vn -0.5114 -0.6076 0.6076
vn -0.5114 0.3289 -0.7939
vn -0.5114 -0.3289 0.7939
vn -0.5114 0.0000 -0.8593
vn -0.5114 0.0000 0.8593
vn -0.5114 -0.3289 -0.7939
vn -0.5114 0.3289 0.7939
vn -1.0000 0.0000 0.0000
vn 0.9707 0.0920 -0.2221
vn 0.9707 0.1700 0.1700
vn 0.9707 -0.0920 0.2221
vn 0.9707 -0.2221 0.0920
usemtl Material.car2
s 1
f 5/1/1 98/2/2 3/3/2
f 97/4/3 6/5/3 4/6/3
f 101/7/3 8/8/3 6/5/3
f 8/8/3 105/9/3 10/10/3
f 105/9/3 12/11/3 10/10/3
f 12/11/3 109/12/3 14/13/3
f 109/12/3 16/14/3 14/13/3
f 111/15/3 18/16/3 16/14/3
f 18/16/3 115/17/3 20/18/3
f 20/18/3 117/19/3 22/20/3
f 22/20/3 119/21/3 24/22/3
f 24/22/3 121/23/3 26/24/3
f 121/23/3 28/25/3 26/24/3
f 123/26/3 30/27/3 28/25/3
f 130/28/4 45/29/5 129/30/5
f 125/31/3 32/32/3 30/27/3
f 127/33/3 2/34/3 32/32/3
f 154/35/6 21/36/7 19/37/6
f 3/3/2 99/38/8 1/39/8
f 1/39/8 128/40/9 31/41/9
f 9/42/10 104/43/11 7/44/11
f 11/45/12 106/46/10 9/42/10
f 13/47/13 108/48/12 11/45/12
f 13/49/13 112/50/14 110/51/13
f 17/52/15 112/50/14 15/53/14
f 19/37/16 114/54/15 17/52/15
f 21/36/17 116/55/16 19/37/16
f 21/56/17 120/57/18 118/58/17
f 23/59/18 122/60/19 120/57/18
f 27/61/20 122/60/19 25/62/19
f 29/63/21 124/64/20 27/61/20
f 29/65/21 128/40/9 126/66/21
f 7/44/11 102/67/1 5/68/1
f 52/69/22 35/70/23 36/71/22
f 132/72/24 38/73/25 131/74/25
f 47/75/26 130/28/4 133/76/26
f 40/77/27 132/72/24 134/78/27
f 48/79/28 133/76/26 135/80/28
f 41/81/29 134/78/27 136/82/29
f 34/83/30 137/84/31 138/85/30
f 33/86/31 135/80/28 137/84/31
f 139/87/32 41/81/29 136/82/29
f 35/88/33 138/85/30 140/89/33
f 43/90/34 139/87/32 141/91/34
f 36/92/35 140/89/33 142/93/35
f 44/94/36 141/91/34 143/95/36
f 37/96/37 142/93/35 144/97/37
f 45/29/5 143/95/36 129/30/5
f 38/73/25 144/97/37 131/74/25
f 57/98/38 72/99/39 56/100/39
f 60/101/40 43/102/41 44/103/40
f 53/104/42 36/71/22 37/105/42
f 61/106/43 44/103/40 45/107/43
f 38/108/44 53/104/42 37/105/42
f 46/109/45 61/106/43 45/107/43
f 39/110/46 54/111/44 38/108/44
f 63/112/47 46/109/45 47/113/47
f 56/100/48 39/110/46 40/114/48
f 48/115/49 63/112/47 47/113/47
f 57/98/50 40/114/48 41/116/50
f 34/117/51 49/118/52 33/119/52
f 33/119/52 64/120/49 48/115/49
f 42/121/53 57/98/50 41/116/50
f 35/70/23 50/122/51 34/117/51
f 59/123/41 42/121/53 43/102/41
f 78/124/54 93/125/55 77/126/56
f 66/127/57 49/118/58 50/122/57
f 65/128/58 64/120/59 49/118/58
f 58/129/60 73/130/38 57/98/38
f 67/131/61 50/122/57 51/132/61
f 59/123/62 74/133/60 58/129/60
f 68/134/63 51/132/61 52/69/63
f 76/135/64 59/123/62 60/101/64
f 53/104/65 68/134/63 52/69/63
f 77/126/66 60/101/64 61/106/66
f 54/111/67 69/136/65 53/104/65
f 62/137/68 77/126/66 61/106/66
f 55/138/69 70/139/67 54/111/67
f 63/112/70 78/124/68 62/137/68
f 56/100/39 71/140/69 55/138/69
f 64/120/59 79/141/70 63/112/70
f 91/142/71 93/125/55 81/143/72
f 87/144/73 70/139/74 71/140/75
f 95/145/76 78/124/54 79/141/77
f 72/99/78 87/144/73 71/140/75
f 96/146/79 79/141/77 80/147/80
f 89/148/81 72/99/78 73/130/82
f 66/127/83 81/143/72 65/128/84
f 81/143/72 80/147/80 65/128/84
f 90/149/85 73/130/82 74/133/86
f 67/131/87 82/150/88 66/127/83
f 75/151/89 90/149/85 74/133/86
f 84/152/90 67/131/87 68/134/91
f 92/153/92 75/151/89 76/135/93
f 85/154/94 68/134/91 69/136/95
f 93/125/55 76/135/93 77/126/56
f 70/139/74 85/154/94 69/136/95
f 97/4/96 99/155/97 98/156/96
f 101/7/98 98/156/96 102/157/98
f 103/158/99 102/157/98 104/159/99
f 105/9/100 104/159/99 106/160/100
f 108/161/101 105/9/100 106/160/100
f 110/162/102 107/163/101 108/161/101
f 112/164/103 109/12/102 110/162/102
f 114/54/104 111/165/103 112/50/103
f 115/166/105 114/54/104 116/55/105
f 117/19/106 116/167/105 118/168/106
f 119/21/107 118/168/106 120/169/107
f 122/60/108 119/170/107 120/57/107
f 123/171/109 122/60/108 124/64/109
f 125/31/110 124/172/109 126/173/110
f 128/174/111 125/31/110 126/173/110
f 99/155/97 127/33/111 128/174/111
f 100/175/3 4/6/3 2/34/3
f 131/176/112 10/177/113 12/178/112
f 26/179/114 143/180/115 24/181/115
f 144/182/113 8/183/116 10/177/113
f 143/180/115 22/184/117 24/181/115
f 142/185/116 6/186/118 8/183/116
f 141/187/117 20/188/119 22/189/117
f 6/190/118 138/191/120 4/192/120
f 139/193/119 18/194/121 20/188/119
f 2/195/122 135/196/123 32/197/123
f 4/192/120 137/198/122 2/195/122
f 18/194/121 134/199/124 16/200/124
f 32/197/123 133/201/125 30/202/125
f 134/199/124 14/203/126 16/200/124
f 30/204/125 130/205/127 28/206/127
f 132/207/126 12/178/112 14/208/126
f 130/205/127 26/179/114 28/206/127
f 146/209/128 5/1/129 3/3/128
f 17/52/130 154/35/6 19/37/6
f 31/41/131 145/210/132 1/39/132
f 1/39/132 146/209/128 3/3/128
f 152/211/133 17/52/130 15/53/133
f 29/65/134 160/212/131 31/41/131
f 151/213/135 15/53/133 13/49/135
f 27/61/136 159/214/134 29/63/134
f 150/215/137 13/47/135 11/45/137
f 157/216/138 27/61/136 25/62/138
f 149/217/139 11/45/137 9/42/139
f 156/218/140 25/62/138 23/59/140
f 7/44/141 149/217/139 9/42/139
f 155/219/7 23/59/140 21/56/7
f 147/220/129 7/44/141 5/68/129
f 157/221/142 161/222/142 158/223/142
f 150/224/142 161/222/142 151/225/142
f 158/223/142 161/222/142 159/226/142
f 151/225/142 161/222/142 152/227/142
f 159/226/142 161/222/142 160/228/142
f 152/227/142 161/222/142 153/229/142
f 145/230/142 161/222/142 146/231/142
f 160/228/142 161/222/142 145/230/142
f 153/229/142 161/222/142 154/232/142
f 146/231/142 161/222/142 147/233/142
f 154/232/142 161/222/142 155/234/142
f 147/233/142 161/222/142 148/235/142
f 155/234/142 161/222/142 156/236/142
f 148/235/142 161/222/142 149/237/142
f 156/236/142 161/222/142 157/221/142
f 149/237/142 161/222/142 150/224/142
f 5/1/1 102/238/1 98/2/2
f 97/4/3 101/7/3 6/5/3
f 101/7/3 103/158/3 8/8/3
f 8/8/3 103/158/3 105/9/3
f 105/9/3 107/163/3 12/11/3
f 12/11/3 107/163/3 109/12/3
f 109/12/3 111/15/3 16/14/3
f 111/15/3 113/239/3 18/16/3
f 18/16/3 113/239/3 115/17/3
f 20/18/3 115/17/3 117/19/3
f 22/20/3 117/19/3 119/21/3
f 24/22/3 119/21/3 121/23/3
f 121/23/3 123/26/3 28/25/3
f 123/26/3 125/31/3 30/27/3
f 130/28/4 46/240/4 45/29/5
f 125/31/3 127/33/3 32/32/3
f 127/33/3 100/175/3 2/34/3
f 154/35/6 155/241/7 21/36/7
f 3/3/2 98/2/2 99/38/8
f 1/39/8 99/38/8 128/40/9
f 9/42/10 106/46/10 104/43/11
f 11/45/12 108/48/12 106/46/10
f 13/47/13 110/242/13 108/48/12
f 13/49/13 15/53/14 112/50/14
f 17/52/15 114/54/15 112/50/14
f 19/37/16 116/55/16 114/54/15
f 21/36/17 118/243/17 116/55/16
f 21/56/17 23/59/18 120/57/18
f 23/59/18 25/62/19 122/60/19
f 27/61/20 124/64/20 122/60/19
f 29/63/21 126/244/21 124/64/20
f 29/65/21 31/41/9 128/40/9
f 7/44/11 104/43/11 102/67/1
f 52/69/22 51/132/23 35/70/23
f 132/72/24 39/245/24 38/73/25
f 47/75/26 46/240/4 130/28/4
f 40/77/27 39/245/24 132/72/24
f 48/79/28 47/75/26 133/76/26
f 41/81/29 40/77/27 134/78/27
f 34/83/30 33/86/31 137/84/31
f 33/86/31 48/79/28 135/80/28
f 139/87/32 42/246/32 41/81/29
f 35/88/33 34/83/30 138/85/30
f 43/90/34 42/246/32 139/87/32
f 36/92/35 35/88/33 140/89/33
f 44/94/36 43/90/34 141/91/34
f 37/96/37 36/92/35 142/93/35
f 45/29/5 44/94/36 143/95/36
f 38/73/25 37/96/37 144/97/37
f 57/98/38 73/130/38 72/99/39
f 60/101/40 59/123/41 43/102/41
f 53/104/42 52/69/22 36/71/22
f 61/106/43 60/101/40 44/103/40
f 38/108/44 54/111/44 53/104/42
f 46/109/45 62/137/45 61/106/43
f 39/110/46 55/138/46 54/111/44
f 63/112/47 62/137/45 46/109/45
f 56/100/48 55/138/46 39/110/46
f 48/115/49 64/120/49 63/112/47
f 57/98/50 56/100/48 40/114/48
f 34/117/51 50/122/51 49/118/52
f 33/119/52 49/118/52 64/120/49
f 42/121/53 58/129/53 57/98/50
f 35/70/23 51/132/23 50/122/51
f 59/123/41 58/129/53 42/121/53
f 78/124/54 94/247/143 93/125/55
f 66/127/57 65/128/58 49/118/58
f 65/128/58 80/147/59 64/120/59
f 58/129/60 74/133/60 73/130/38
f 67/131/61 66/127/57 50/122/57
f 59/123/62 75/151/62 74/133/60
f 68/134/63 67/131/61 51/132/61
f 76/135/64 75/151/62 59/123/62
f 53/104/65 69/136/65 68/134/63
f 77/126/66 76/135/64 60/101/64
f 54/111/67 70/139/67 69/136/65
f 62/137/68 78/124/68 77/126/66
f 55/138/69 71/140/69 70/139/67
f 63/112/70 79/141/70 78/124/68
f 56/100/39 72/99/39 71/140/69
f 64/120/59 80/147/59 79/141/70
f 81/143/72 82/150/88 83/248/144
f 83/248/144 84/152/90 81/143/72
f 84/152/90 85/154/94 81/143/72
f 85/154/94 86/249/145 87/144/73
f 87/144/73 88/250/146 89/148/81
f 89/148/81 90/149/85 91/142/71
f 91/142/71 92/153/92 93/125/55
f 93/125/55 94/247/143 81/143/72
f 94/247/143 95/145/76 81/143/72
f 95/145/76 96/146/79 81/143/72
f 85/154/94 87/144/73 81/143/72
f 87/144/73 89/148/81 81/143/72
f 89/148/81 91/142/71 81/143/72
f 87/144/73 86/249/145 70/139/74
f 95/145/76 94/247/143 78/124/54
f 72/99/78 88/250/146 87/144/73
f 96/146/79 95/145/76 79/141/77
f 89/148/81 88/250/146 72/99/78
f 66/127/83 82/150/88 81/143/72
f 81/143/72 96/146/79 80/147/80
f 90/149/85 89/148/81 73/130/82
f 67/131/87 83/248/144 82/150/88
f 75/151/89 91/142/71 90/149/85
f 84/152/90 83/248/144 67/131/87
f 92/153/92 91/142/71 75/151/89
f 85/154/94 84/152/90 68/134/91
f 93/125/55 92/153/92 76/135/93
f 70/139/74 86/249/145 85/154/94
f 97/4/96 100/175/97 99/155/97
f 101/7/98 97/4/96 98/156/96
f 103/158/99 101/7/98 102/157/98
f 105/9/100 103/158/99 104/159/99
f 108/161/101 107/163/101 105/9/100
f 110/162/102 109/12/102 107/163/101
f 112/164/103 111/15/103 109/12/102
f 114/54/104 113/251/104 111/165/103
f 115/166/105 113/251/104 114/54/104
f 117/19/106 115/17/105 116/167/105
f 119/21/107 117/19/106 118/168/106
f 122/60/108 121/252/108 119/170/107
f 123/171/109 121/252/108 122/60/108
f 125/31/110 123/26/109 124/172/109
f 128/174/111 127/33/111 125/31/110
f 99/155/97 100/175/97 127/33/111
f 100/175/3 97/4/3 4/6/3
f 131/176/112 144/182/113 10/177/113
f 26/179/114 129/253/114 143/180/115
f 144/182/113 142/185/116 8/183/116
f 143/180/115 141/254/117 22/184/117
f 142/185/116 140/255/118 6/186/118
f 141/187/117 139/193/119 20/188/119
f 6/190/118 140/256/118 138/191/120
f 139/193/119 136/257/121 18/194/121
f 2/195/122 137/198/122 135/196/123
f 4/192/120 138/191/120 137/198/122
f 18/194/121 136/257/121 134/199/124
f 32/197/123 135/196/123 133/201/125
f 134/199/124 132/258/126 14/203/126
f 30/204/125 133/259/125 130/205/127
f 132/207/126 131/176/112 12/178/112
f 130/205/127 129/253/114 26/179/114
f 146/209/128 147/260/129 5/1/129
f 17/52/130 153/261/130 154/35/6
f 31/41/131 160/212/131 145/210/132
f 1/39/132 145/210/132 146/209/128
f 152/211/133 153/261/130 17/52/130
f 29/65/134 159/262/134 160/212/131
f 151/213/135 152/211/133 15/53/133
f 27/61/136 158/263/136 159/214/134
f 150/215/137 151/264/135 13/47/135
f 157/216/138 158/263/136 27/61/136
f 149/217/139 150/215/137 11/45/137
f 156/218/140 157/216/138 25/62/138
f 7/44/141 148/265/141 149/217/139
f 155/219/7 156/218/140 23/59/140
f 147/220/129 148/265/141 7/44/141
